<svg xmlns="http://www.w3.org/2000/svg" viewBox="0 0 100 100" fill="none">
  <defs>
    <radialGradient id="g" cx="50%" cy="50%" r="50%">
      <stop offset="0%" stop-color="#a78bfa" stop-opacity="0.55"/>
      <stop offset="55%" stop-color="#a78bfa" stop-opacity="0.18"/>
      <stop offset="100%" stop-color="#a78bfa" stop-opacity="0"/>
    </radialGradient>
  </defs>
  <circle cx="50" cy="50" r="38" stroke="#94a3b8" stroke-opacity="0.45" stroke-width="1" stroke-dasharray="2 3"/>
  <g stroke-width="2" stroke-linecap="round">
    <line x1="50" y1="29" x2="50" y2="20" stroke="#a78bfa"/>
    <line x1="68.19" y1="39.5" x2="76.0" y2="35.0" stroke="#22c55e"/>
    <line x1="68.19" y1="60.5" x2="76.0" y2="65.0" stroke="#3b82f6"/>
    <line x1="50" y1="71" x2="50" y2="80" stroke="#f59e0b"/>
    <line x1="31.81" y1="60.5" x2="24.0" y2="65.0" stroke="#ef4444"/>
    <line x1="31.81" y1="39.5" x2="24.0" y2="35.0" stroke="#60a5fa"/>
  </g>
  <g stroke-width="3" fill="none">
    <circle cx="50" cy="12" r="6" stroke="#a78bfa"/>
    <circle cx="82.91" cy="31" r="6" stroke="#22c55e"/>
    <circle cx="82.91" cy="69" r="6" stroke="#3b82f6"/>
    <circle cx="50" cy="88" r="6" stroke="#f59e0b"/>
    <circle cx="17.09" cy="69" r="6" stroke="#ef4444"/>
    <circle cx="17.09" cy="31" r="6" stroke="#60a5fa"/>
  </g>
  <circle cx="50" cy="50" r="27" fill="url(#g)"/>
  <circle cx="50" cy="50" r="18" fill="#8b5cf6"/>
  <path d="M44 41 L56 50 L44 59" stroke="white" stroke-width="3" stroke-linecap="round" stroke-linejoin="round" fill="none"/>
  <circle cx="61" cy="50" r="2.4" fill="#22c55e"/>
</svg>
